# xmcd
#
# Track frame offsets:
#  150
#  20671
#  43525
#  56395
#  67680
#  88657
#  108090
#  123317
#  137753
#  154548
#  166408
#
# Disc length: 2401 seconds
#
# Revision: 0
# Processed by: cddbd v1.5.1PL2 Copyright (c) Steve Scherf et al.
# Submitted via: Collectorz.com_Music_Collector 6.11
#
DISCID=81095f0b
DTITLE=Esther Marrow - Newport News Virginia
DYEAR=2006
DGENRE=Blues - Soul
TTITLE0=He Don't Appreciate It
TTITLE1=No Answer Came
TTITLE2=Hello Brother
TTITLE3=Money Honey
TTITLE4=Peaceful Man
TTITLE5=Mama
TTITLE6=Satisfied
TTITLE7=What A Wonderful World
TTITLE8=Walk Tall
TTITLE9=It's Been A Lonely Night
TTITLE10=Chains Of Love
EXTD=
EXTT0=
EXTT1=
EXTT2=
EXTT3=
EXTT4=
EXTT5=
EXTT6=
EXTT7=
EXTT8=
EXTT9=
EXTT10=
PLAYORDER=
